<svg width="75" height="76" viewBox="0 0 75 76" fill="none" xmlns="http://www.w3.org/2000/svg">
<g clip-path="url(#clip0_36_234)">
<path d="M8.33333 0.5C3.75 0.5 0 4.25 0 8.83333V67.1667C0 71.75 3.75 75.5 8.33333 75.5H66.6667C71.25 75.5 75 71.75 75 67.1667V8.83333C75 4.25 71.25 0.5 66.6667 0.5H8.33333ZM24.6989 21.3333H31.2175L42.334 54.6667H34.7168L32.8288 47.847H23.0957L21.2077 54.6667H13.6556L24.6989 21.3333ZM27.946 30.3503L24.6501 42.2318H31.25L27.946 30.3503ZM53.0599 32.1406C59.4307 32.1406 61.3363 38.3362 61.3363 41.8737V45.0231H49.0316C49.2316 46.4856 49.8303 47.6554 50.8219 48.5387C51.8136 49.4179 53.0692 49.9654 54.5817 49.8571C56.8192 49.6946 59.3995 48.354 60.262 47.554V53.0635C58.8829 53.8718 56.0788 54.6667 54.1829 54.6667C50.8371 54.6667 48.1165 53.6639 46.0124 51.6556C43.9124 49.6473 42.8467 46.9692 42.8467 43.6234V43.0456C42.8467 40.8039 44.0641 32.1406 53.0599 32.1406ZM52.5228 37.0316C50.6145 37.0316 49.0234 38.8789 49.0234 40.9622H55.778C55.7738 39.0247 54.5186 37.0316 52.5228 37.0316Z" fill="#2077E2"/>
</g>
<defs>
<clipPath id="clip0_36_234">
<rect width="75" height="75" fill="white" transform="translate(0 0.5)"/>
</clipPath>
</defs>
</svg>
