<svg width="75" height="76" viewBox="0 0 75 76" fill="none" xmlns="http://www.w3.org/2000/svg">
<g clip-path="url(#clip0_36_232)">
<path d="M8.33333 0.5C3.74349 0.5 0 4.24349 0 8.83333V67.1667C0 71.7565 3.74349 75.5 8.33333 75.5H66.6667C71.2565 75.5 75 71.7565 75 67.1667V8.83333C75 4.24349 71.2565 0.5 66.6667 0.5H8.33333ZM52.0833 19.25C54.1667 19.25 55.8594 20.9427 55.8594 23.026C55.8594 25.1094 54.1667 26.8021 52.0833 26.8021C50 26.8021 48.3073 25.1094 48.3073 23.026C48.3073 20.9427 50 19.25 52.0833 19.25ZM27.8646 20.9427H34.6354L45.8333 56.3594H37.8906L35.8073 49.1979H26.3021L24.2188 56.3594H16.6667L27.8646 20.9427ZM48.6979 30.0573H55.8594V56.3594H48.6979V30.0573ZM31.25 30.4479L27.8646 42.9479H34.6354L31.25 30.4479Z" fill="#2077E2"/>
</g>
<defs>
<clipPath id="clip0_36_232">
<rect width="75" height="75" fill="white" transform="translate(0 0.5)"/>
</clipPath>
</defs>
</svg>
