<svg width="158" height="156" viewBox="0 0 158 156" fill="none" xmlns="http://www.w3.org/2000/svg">
<path d="M84.0116 7.71836C84.0927 7.62604 84.1547 7.59448 84.2002 7.5774C84.2592 7.55524 84.3422 7.54094 84.4395 7.55121C84.5369 7.56148 84.6151 7.59277 84.6682 7.62674C84.7091 7.65294 84.7631 7.69673 84.8233 7.80395L104.838 43.5062C106.503 46.4753 109.098 48.8139 112.224 50.161L149.812 66.3596C149.925 66.4082 149.974 66.4574 150.004 66.4954C150.044 66.5447 150.083 66.6192 150.103 66.715C150.124 66.8108 150.118 66.8947 150.102 66.9557C150.09 67.0028 150.065 67.0677 149.982 67.158L122.212 97.2259C119.902 99.7264 118.48 102.918 118.165 106.307L114.374 147.061C114.363 147.183 114.332 147.245 114.305 147.286C114.27 147.338 114.211 147.399 114.126 147.448C114.042 147.496 113.96 147.517 113.897 147.521C113.849 147.524 113.779 147.52 113.668 147.469L76.4898 130.349C73.3981 128.926 69.9236 128.559 66.6028 129.307L26.6723 138.296C26.5524 138.323 26.4837 138.312 26.4368 138.299C26.3761 138.282 26.3005 138.245 26.2278 138.179C26.155 138.114 26.1102 138.042 26.0872 137.984C26.0695 137.939 26.0515 137.871 26.0659 137.749L30.8587 97.1011C31.2573 93.7207 30.5321 90.303 28.795 87.3758L7.90697 52.1773C7.84424 52.0716 7.83337 52.0029 7.83119 51.9543C7.82836 51.8913 7.84039 51.808 7.88025 51.7186C7.92011 51.6291 7.97402 51.5645 8.02274 51.5245C8.06031 51.4936 8.11865 51.4558 8.23919 51.4317L48.379 43.429C51.7171 42.7635 54.7433 41.0176 56.9905 38.461L84.0116 7.71836Z" stroke="#2077E2" stroke-width="15"/>
</svg>
