<?xml version="1.0" encoding="UTF-8"?>
<svg xmlns="http://www.w3.org/2000/svg" viewBox="0 0 710.24 948.19">
  <defs>
    <style>
      .cls-1 {
        fill: #fff;
      }

      .cls-2 {
        fill: #78a8da;
      }
    </style>
  </defs>
  <g id="Calque_3" data-name="Calque 3">
    <path class="cls-1" d="M249.55,866.04c-5.96-31.63-11.92-63.26-17.88-94.89l-34.97-40.35c-1.97-11.17-5.34-24.85-11.27-39.84-6.21-15.68-13.49-28.43-19.98-38.18-4.81-11.89-9.62-23.78-14.43-35.67-5.42-4.08-12.99-10.92-18.34-21.35-7.48-14.59-4.37-24.07-10.3-39.18-2.67-6.8-6.1-12.01-22.61-29.64-35.27-37.66-39.56-35.2-46.97-47.97-11.3-19.48-18.39-54.66.25-73.59,18.77-19.06,56.56-14.48,75.6,1.26,11.25,9.3,10.65,18.11,25.12,28.38,10,7.1,29.33,16.4,40.69,11.3,17.42-7.82,14.01-48.62,5.36-137.03-6.98-71.29-16.03-159.88,12.04-211.68,3.91-7.21,10.55-17.43,22.57-23.07,28.13-13.2,62.33,9.63,68.72,14.04,4.18,53.5,8.36,107.01,12.54,160.51,26.75-.33,53.5-.67,80.26-1,8.36,15.72,16.72,31.43,25.08,47.15,29.43-.5,58.85-1,88.28-1.5,8.53,10.03,17.05,20.06,25.58,30.1,28.59-1.13,43.68,6.98,52.17,14.55,8.58,7.65,9.16,13.63,20.06,25.58,15.88,17.41,27.5,18.8,37.12,27.09,25.51,21.99-1.59,59.3,7.52,139.95,4.8,42.46,15.63,61.53,3.01,89.28-8.99,19.77-17.26,16.19-26.58,37.12-16.5,37.03,3.92,60.53-15.05,88.28-9.61,14.06-17.05,11.26-28.09,24.58-19.32,23.32-17.66,57.44-11.54,86.28-107.99,3.16-215.98,6.33-323.97,9.49Z"/>
  </g>
  <g id="Calque_5" data-name="Calque 5">
    <rect class="cls-2" x="184.62" y="86.12" width="36.82" height="411.62"/>
    <rect class="cls-2" x="146.23" y="422.49" width="38.46" height="38.46"/>
    <rect class="cls-2" x="33.86" y="384.03" width="112.37" height="38.46"/>
    <rect class="cls-2" x="33.86" y="422.49" width="38.46" height="75.25"/>
    <rect class="cls-2" x="70.81" y="497.73" width="38.46" height="38.46"/>
    <rect class="cls-2" x="109.27" y="536.19" width="36.96" height="76.07"/>
    <rect class="cls-2" x="146.23" y="610.9" width="38.46" height="75.37"/>
    <rect class="cls-2" x="183.69" y="686.27" width="38.46" height="75.34"/>
    <rect class="cls-2" x="221.45" y="761.6" width="38.46" height="75.34"/>
    <rect class="cls-2" x="221.45" y="836.94" width="376.01" height="38.46"/>
    <rect class="cls-2" x="559" y="760.81" width="38.46" height="81.19"/>
    <rect class="cls-2" x="597.46" y="649.33" width="38.46" height="111.48"/>
    <rect class="cls-2" x="635.73" y="386.42" width="38.46" height="262.91"/>
    <rect class="cls-2" x="597.28" y="347.97" width="38.46" height="38.46"/>
    <rect class="cls-2" x="522.57" y="309.51" width="74.7" height="38.46"/>
    <rect class="cls-2" x="522.57" y="346.73" width="38.46" height="113.36"/>
    <rect class="cls-2" x="408.77" y="271.05" width="113.8" height="38.46"/>
    <rect class="cls-2" x="408.77" y="309.51" width="38.46" height="113.13"/>
    <rect class="cls-2" x="331.32" y="232.6" width="77.45" height="38.46"/>
    <rect class="cls-2" x="295.88" y="84.89" width="38.46" height="337.74"/>
    <rect class="cls-2" x="221.41" y="46.44" width="75.55" height="38.46"/>
  </g>
</svg>