<svg width="93" height="69" viewBox="0 0 93 69" fill="none" xmlns="http://www.w3.org/2000/svg">
<path d="M80.1366 8.03807C72.1744 1.63602 59.5788 0.552988 59.0435 0.50699C58.203 0.435903 57.4043 0.912606 57.0614 1.68202C57.0363 1.7322 56.7603 2.36363 56.455 3.34631C61.7199 4.23281 68.1892 6.02254 74.0437 9.65636C74.9805 10.2376 75.269 11.4712 74.6877 12.412C74.3114 13.0226 73.6548 13.3571 72.9857 13.3571C72.6261 13.3571 72.2623 13.2609 71.9319 13.056C61.8704 6.81704 49.2999 6.50342 46.8828 6.50342C44.4657 6.50342 31.891 6.81704 21.8379 13.056C20.897 13.6414 19.6675 13.3487 19.0821 12.412C18.4966 11.4712 18.7894 10.2418 19.7261 9.65636C25.5806 6.02672 32.0457 4.23281 37.3148 3.34631C37.0054 2.35944 36.7294 1.7322 36.7085 1.68202C36.3614 0.912606 35.5668 0.427539 34.7221 0.511171C34.191 0.552988 21.5954 1.63602 13.5244 8.13007C9.30917 12.0231 0.882812 34.8046 0.882812 54.5C0.882812 54.847 0.974812 55.1899 1.14627 55.491C6.96318 65.7067 22.829 68.3829 26.4463 68.5C26.4672 68.5 26.4881 68.5 26.509 68.5C27.1488 68.5 27.751 68.1947 28.1274 67.6762L31.7864 62.6499C21.9215 60.0991 16.8824 55.7712 16.5897 55.5161C15.7617 54.7843 15.6823 53.5215 16.4141 52.6935C17.1459 51.8655 18.4046 51.7861 19.2326 52.5137C19.3539 52.6224 28.6334 60.4964 46.8828 60.4964C65.1657 60.4964 74.4452 52.589 74.5372 52.5095C75.3652 51.7903 76.6281 51.8655 77.3557 52.6977C78.0834 53.5256 78.0039 54.7843 77.1801 55.5119C76.8874 55.7712 71.8483 60.095 61.9834 62.6457L65.6424 67.672C66.0188 68.1906 66.621 68.4958 67.2608 68.4958C67.2817 68.4958 67.3026 68.4958 67.3235 68.4958C70.9408 68.3829 86.8066 65.7067 92.6235 55.4868C92.7908 55.1857 92.8828 54.847 92.8828 54.5C92.8828 34.8046 84.4564 12.0231 80.1366 8.03807ZM33.8815 46.5005C30.0175 46.5005 26.8812 42.9169 26.8812 38.5011C26.8812 34.0853 30.0134 30.5017 33.8815 30.5017C37.7497 30.5017 40.8819 34.0853 40.8819 38.5011C40.8819 42.9169 37.7497 46.5005 33.8815 46.5005ZM59.8841 46.5005C56.0201 46.5005 52.8837 42.9169 52.8837 38.5011C52.8837 34.0853 56.0159 30.5017 59.8841 30.5017C63.7481 30.5017 66.8845 34.0853 66.8845 38.5011C66.8845 42.9169 63.7481 46.5005 59.8841 46.5005Z" fill="#2077E2"/>
</svg>
