<svg width="170" height="123" viewBox="0 0 170 123" fill="none" xmlns="http://www.w3.org/2000/svg">
<path d="M12.092 56.8294L23.2468 62.4069L27.3028 60.3787L36.9365 31.224L47.8378 12.7171L58.9927 3.84399L68.3729 9.67488L80.2883 28.9423H90.6825L98.7952 15.7593L108.429 3.84399L115.527 5.87212L126.175 19.5622L139.105 42.3788L141.893 65.1955L150.767 60.3787L163.95 56.8294V67.4772L152.541 71.28L160.654 83.4489L155.583 91.815L145.189 85.2235L140.626 77.3644L135.302 88.5193L124.147 103.477L102.851 115.899L77.4996 118.688L52.9082 110.575L39.9788 100.181L32.8802 91.815L27.3028 81.9278L23.2468 85.2235L17.4156 91.815L12.092 88.5193V79.8996V69.7589L4.73975 67.4772L6.00745 60.3787L12.092 56.8294Z" fill="#FFFEFD"/>
<path d="M76.3657 30.1577C79.1387 29.8957 82.2174 29.7647 85.5581 29.7865C88.5931 29.8302 91.4098 30.0267 93.9644 30.2887" fill="#FFFEFD"/>
<path d="M76.3657 30.1577C79.1387 29.8957 82.2174 29.7647 85.5581 29.7865C88.5931 29.8302 91.4098 30.0267 93.9644 30.2887" stroke="#2077E2" stroke-width="8" stroke-miterlimit="10" stroke-linecap="round"/>
<path d="M80.2522 29.8957C75.6888 19.5897 70.0555 12.8647 65.9942 8.84711C62.326 5.20073 61.0159 4.80771 60.1207 4.65487C49.7056 3.01727 38.3734 27.9961 36.1681 32.8215C33.3515 39.0444 29.4649 47.8001 28.6134 60.224C28.1112 67.4512 27.3688 77.648 32.4563 88.6527C39.5525 104.024 53.4175 110.837 57.6097 112.867C67.4135 117.584 76.4093 118.391 81.6278 118.457" fill="#FFFEFD"/>
<path d="M80.2522 29.8957C75.6888 19.5897 70.0555 12.8647 65.9942 8.84711C62.326 5.20073 61.0159 4.80771 60.1207 4.65487C49.7056 3.01727 38.3734 27.9961 36.1681 32.8215C33.3515 39.0444 29.4649 47.8001 28.6134 60.224C28.1112 67.4512 27.3688 77.648 32.4563 88.6527C39.5525 104.024 53.4175 110.837 57.6097 112.867C67.4135 117.584 76.4093 118.391 81.6278 118.457" stroke="#2077E2" stroke-width="8" stroke-miterlimit="10" stroke-linecap="round"/>
<path d="M26.7137 69.4382C25.6001 69.8531 23.7878 70.4426 21.5389 70.8575C18.7004 71.3815 13.8749 72.1894 9.02763 70.0496C7.28086 69.2854 5.42491 68.4338 4.50786 66.4032C3.37246 63.8922 4.48603 61.4468 4.55153 61.3158C5.51225 59.2851 7.34636 58.4773 8.0014 58.1934C10.4469 57.1235 12.7395 57.6912 14.3334 58.0842C18.5912 59.1323 21.2332 61.7743 22.4778 63.0407C24.552 65.1586 25.884 67.4513 26.7137 69.4382Z" fill="#FFFEFD" stroke="#2077E2" stroke-width="8" stroke-miterlimit="10" stroke-linecap="round"/>
<path d="M26.517 71.0978C26.5388 72.2987 26.517 74.1765 26.1458 76.4691C25.6873 79.3294 24.8794 84.1549 21.2767 88.0196C19.9884 89.417 18.5692 90.8799 16.342 91.0983C13.5909 91.3603 11.6476 89.4825 11.5384 89.3952C9.92266 87.8013 9.79165 85.8143 9.72614 85.1156C9.52963 82.4518 10.8179 80.4648 11.7131 79.0893C14.1149 75.421 17.4774 73.7834 19.0932 73.0192C21.7789 71.7528 24.3772 71.2506 26.5388 71.1196L26.517 71.0978Z" fill="#FFFEFD" stroke="#2077E2" stroke-width="8" stroke-miterlimit="10" stroke-linecap="round"/>
<path d="M89.6409 29.4592C94.2043 19.1532 99.8377 12.4282 103.899 8.41059C107.567 4.76421 108.877 4.37119 109.772 4.21834C120.188 2.58075 131.52 27.5596 133.725 32.385C136.542 38.6079 140.428 47.3636 141.28 59.7875C141.782 67.0147 142.524 77.2115 137.437 88.2161C130.559 103.151 117.153 110.007 112.283 112.431C99.4228 118.828 87.4356 118.894 81.3438 118.479" fill="#FFFEFD"/>
<path d="M89.6409 29.4592C94.2043 19.1532 99.8377 12.4282 103.899 8.41059C107.567 4.76421 108.877 4.37119 109.772 4.21834C120.188 2.58075 131.52 27.5596 133.725 32.385C136.542 38.6079 140.428 47.3636 141.28 59.7875C141.782 67.0147 142.524 77.2115 137.437 88.2161C130.559 103.151 117.153 110.007 112.283 112.431C99.4228 118.828 87.4356 118.894 81.3438 118.479" stroke="#2077E2" stroke-width="8" stroke-miterlimit="10" stroke-linecap="round"/>
<path d="M143.201 69.0016C144.315 69.4164 146.127 70.006 148.376 70.4208C151.214 70.9449 156.04 71.7527 160.887 69.613C162.634 68.8487 164.49 67.9972 165.407 65.9666C166.542 63.4556 165.429 61.0101 165.363 60.8791C164.403 58.8485 162.568 58.0406 161.913 57.7568C159.468 56.6869 157.175 57.2546 155.581 57.6476C151.324 58.6956 148.682 61.3376 147.437 62.604C145.363 64.722 144.031 67.0146 143.201 69.0016Z" fill="#FFFEFD" stroke="#2077E2" stroke-width="8" stroke-miterlimit="10" stroke-linecap="round"/>
<path d="M143.398 70.639C143.376 71.8399 143.398 73.7177 143.769 76.0103C144.228 78.8707 145.036 83.6961 148.639 87.5609C149.927 88.9583 151.346 90.4212 153.573 90.6395C156.324 90.9016 158.268 89.0238 158.377 88.9364C159.993 87.3425 160.124 85.3556 160.189 84.6569C160.386 81.993 159.097 80.0061 158.202 78.6305C155.8 74.9623 152.438 73.3247 150.822 72.5605C148.136 71.2941 145.538 70.7919 143.376 70.6609L143.398 70.639Z" fill="#FFFEFD" stroke="#2077E2" stroke-width="8" stroke-miterlimit="10" stroke-linecap="round"/>
</svg>
