<svg width="75" height="76" viewBox="0 0 75 76" fill="none" xmlns="http://www.w3.org/2000/svg">
<path fill-rule="evenodd" clip-rule="evenodd" d="M8 0C3.58172 0 0 3.58172 0 8V68C0 72.4183 3.58172 76 8 76H67C71.4183 76 75 72.4183 75 68V8C75 3.58172 71.4183 0 67 0H8ZM28.4667 28.913H35.9333V14H28.4667C24.3547 14 21 17.3501 21 21.4565C21 25.5629 24.3547 28.913 28.4667 28.913ZM28.4667 45.9565H35.9333V31.0435H28.4667C24.3547 31.0435 21 34.3936 21 38.5C21 42.6064 24.3547 45.9565 28.4667 45.9565ZM35.9333 55.5435V48.087H28.4667C24.3547 48.087 21 51.4371 21 55.5435C21 59.6499 24.3547 63 28.4667 63C32.5787 63 35.9333 59.6499 35.9333 55.5435ZM45.5333 28.913C49.6453 28.913 53 25.5629 53 21.4565C53 17.3501 49.6453 14 45.5333 14H38.0667V28.913H45.5333ZM40.2536 33.2274C41.6539 31.8291 43.5531 31.0435 45.5333 31.0435C47.5136 31.0435 49.4128 31.8291 50.8131 33.2274C52.2133 34.6258 53 36.5224 53 38.5C53 40.4776 52.2133 42.3742 50.8131 43.7726C49.4128 45.1709 47.5136 45.9565 45.5333 45.9565C43.5531 45.9565 41.6539 45.1709 40.2536 43.7726C38.8533 42.3742 38.0667 40.4776 38.0667 38.5C38.0667 36.5224 38.8533 34.6258 40.2536 33.2274Z" fill="#2077E2"/>
</svg>
