<svg width="76" height="75" viewBox="0 0 76 75" fill="none" xmlns="http://www.w3.org/2000/svg">
<path d="M22.9354 0C10.8304 0 0.882812 9.93431 0.882812 22.0526V52.9474C0.882812 65.0524 10.8171 75 22.9354 75H53.8303C65.9352 75 75.8828 65.0657 75.8828 52.9474V22.0526C75.8828 9.94762 65.9485 0 53.8303 0H22.9354ZM22.9354 6.81818H53.8303C62.2598 6.81818 69.0646 13.623 69.0646 22.0526V52.9474C69.0646 61.377 62.2598 68.1818 53.8303 68.1818H22.9354C14.5059 68.1818 7.70099 61.377 7.70099 52.9474V22.0526C7.70099 13.623 14.5059 6.81818 22.9354 6.81818ZM58.5178 14.2756C56.7999 14.2756 55.4283 15.6472 55.4283 17.3651C55.4283 19.0829 56.7999 20.4545 58.5178 20.4545C60.2356 20.4545 61.6072 19.0829 61.6072 17.3651C61.6072 15.6472 60.2356 14.2756 58.5178 14.2756ZM38.3828 17.0455C27.1301 17.0455 17.9283 26.2473 17.9283 37.5C17.9283 48.7527 27.1301 57.9545 38.3828 57.9545C49.6355 57.9545 58.8374 48.7527 58.8374 37.5C58.8374 26.2473 49.6355 17.0455 38.3828 17.0455ZM38.3828 23.8636C45.96 23.8636 52.0192 29.9228 52.0192 37.5C52.0192 45.0772 45.96 51.1364 38.3828 51.1364C30.8056 51.1364 24.7464 45.0772 24.7464 37.5C24.7464 29.9228 30.8056 23.8636 38.3828 23.8636Z" fill="#2077E2"/>
</svg>
