<svg width="515" height="364" viewBox="0 0 515 364" fill="none" xmlns="http://www.w3.org/2000/svg">
<path d="M205.229 25.7165L244.466 83.7206L272.696 77.9758L327.099 9.14392H349.214L391.232 66.0337L409.809 110.264L419.981 150.513L438.558 191.204L487.211 163.34L504.903 184.57L495.172 203.589C477.038 206.095 444.573 211.816 459.788 214.646C475.003 217.477 479.987 241.184 480.576 252.684L469.519 270.376L454.038 264.184L431.039 233.665L405.386 278.337L358.944 323.452L304.541 348.663L228.908 352.644L174.063 335.394L109.93 284.53L86.2957 237.204L66.142 261.972L43.5847 273.03L29.4311 244.723L58.1806 217.742L33.8541 211.108L4.21973 186.781L33.8541 165.551L77.0342 193.88L86.2957 156.348L101.406 113.941L165.259 10.3625L183.294 9.14392L205.229 25.7165Z" fill="white"/>
<path d="M257.397 79.8544H230.337V88.9544H257.397V79.8544Z" fill="#78A8DA" stroke="#78A8DA" stroke-width="10"/>
<path d="M248.347 70.8444H239.337V79.8544H248.347V70.8444Z" fill="#78A8DA" stroke="#78A8DA" stroke-width="10"/>
<path d="M239.327 61.8444H230.337V70.8344H239.327V61.8444Z" fill="#78A8DA" stroke="#78A8DA" stroke-width="10"/>
<path d="M230.337 43.8544H221.347V61.8444H230.337V43.8544Z" fill="#78A8DA" stroke="#78A8DA" stroke-width="10"/>
<path d="M221.337 34.8644H212.347V43.8544H221.337V34.8644Z" fill="#78A8DA" stroke="#78A8DA" stroke-width="10"/>
<path d="M212.347 25.8644H203.357V34.8544H212.347V25.8644Z" fill="#78A8DA" stroke="#78A8DA" stroke-width="10"/>
<path d="M203.357 16.8743H194.367V25.8643H203.357V16.8743Z" fill="#78A8DA" stroke="#78A8DA" stroke-width="10"/>
<mask id="path-9-inside-1_319_99" fill="white">
<path d="M194.357 0.389465H185.367V16.8743H194.357V0.389465Z"/>
</mask>
<path d="M194.357 0.389465H185.367V16.8743H194.357V0.389465Z" fill="#78A8DA"/>
<path d="M185.367 0.389465V-9.61053H175.367V0.389465H185.367ZM194.357 0.389465H204.357V-9.61053H194.357V0.389465ZM194.357 16.8743V26.8743H204.357V16.8743H194.357ZM185.367 16.8743H175.367V26.8743H185.367V16.8743ZM185.367 0.389465V10.3895H194.357V0.389465V-9.61053H185.367V0.389465ZM194.357 0.389465H184.357V16.8743H194.357H204.357V0.389465H194.357ZM194.357 16.8743V6.87433H185.367V16.8743V26.8743H194.357V16.8743ZM185.367 16.8743H195.367V0.389465H185.367H175.367V16.8743H185.367Z" fill="#78A8DA" mask="url(#path-9-inside-1_319_99)"/>
<mask id="path-11-inside-2_319_99" fill="white">
<path d="M185.367 0.389465H176.377V16.8743H185.367V0.389465Z"/>
</mask>
<path d="M185.367 0.389465H176.377V16.8743H185.367V0.389465Z" fill="#78A8DA"/>
<path d="M176.377 0.389465V-9.61053H166.377V0.389465H176.377ZM185.367 0.389465H195.367V-9.61053H185.367V0.389465ZM185.367 16.8743V26.8743H195.367V16.8743H185.367ZM176.377 16.8743H166.377V26.8743H176.377V16.8743ZM176.377 0.389465V10.3895H185.367V0.389465V-9.61053H176.377V0.389465ZM185.367 0.389465H175.367V16.8743H185.367H195.367V0.389465H185.367ZM185.367 16.8743V6.87433H176.377V16.8743V26.8743H185.367V16.8743ZM176.377 16.8743H186.377V0.389465H176.377H166.377V16.8743H176.377Z" fill="#78A8DA" mask="url(#path-11-inside-2_319_99)"/>
<mask id="path-13-inside-3_319_99" fill="white">
<path d="M177.307 0.389465H167.377V16.8743H177.307V0.389465Z"/>
</mask>
<path d="M177.307 0.389465H167.377V16.8743H177.307V0.389465Z" fill="#78A8DA"/>
<path d="M167.377 0.389465V-9.61053H157.377V0.389465H167.377ZM177.307 0.389465H187.307V-9.61053H177.307V0.389465ZM177.307 16.8743V26.8743H187.307V16.8743H177.307ZM167.377 16.8743H157.377V26.8743H167.377V16.8743ZM167.377 0.389465V10.3895H177.307V0.389465V-9.61053H167.377V0.389465ZM177.307 0.389465H167.307V16.8743H177.307H187.307V0.389465H177.307ZM177.307 16.8743V6.87433H167.377V16.8743V26.8743H177.307V16.8743ZM167.377 16.8743H177.377V0.389465H167.377H157.377V16.8743H167.377Z" fill="#78A8DA" mask="url(#path-13-inside-3_319_99)"/>
<mask id="path-15-inside-4_319_99" fill="white">
<path d="M167.969 0.389465H158.367V16.8743H167.969V0.389465Z"/>
</mask>
<path d="M167.969 0.389465H158.367V16.8743H167.969V0.389465Z" fill="#78A8DA"/>
<path d="M158.367 0.389465V-9.61053H148.367V0.389465H158.367ZM167.969 0.389465H177.969V-9.61053H167.969V0.389465ZM167.969 16.8743V26.8743H177.969V16.8743H167.969ZM158.367 16.8743H148.367V26.8743H158.367V16.8743ZM158.367 0.389465V10.3895H167.969V0.389465V-9.61053H158.367V0.389465ZM167.969 0.389465H157.969V16.8743H167.969H177.969V0.389465H167.969ZM167.969 16.8743V6.87433H158.367V16.8743V26.8743H167.969V16.8743ZM158.367 16.8743H168.367V0.389465H158.367H148.367V16.8743H158.367Z" fill="#78A8DA" mask="url(#path-15-inside-4_319_99)"/>
<path d="M158.367 16.8743H149.377V25.8643H158.367V16.8743Z" fill="#78A8DA" stroke="#78A8DA" stroke-width="10"/>
<path d="M149.367 25.8644H140.377V34.8544H149.367V25.8644Z" fill="#78A8DA" stroke="#78A8DA" stroke-width="10"/>
<path d="M149.367 34.8644H140.377V43.8544H149.367V34.8644Z" fill="#78A8DA" stroke="#78A8DA" stroke-width="10"/>
<path d="M140.377 43.8544H131.387V52.8444H140.377V43.8544Z" fill="#78A8DA" stroke="#78A8DA" stroke-width="10"/>
<path d="M131.377 52.8544H122.387V61.8444H131.377V52.8544Z" fill="#78A8DA" stroke="#78A8DA" stroke-width="10"/>
<path d="M131.377 61.8444H122.387V70.8344H131.377V61.8444Z" fill="#78A8DA" stroke="#78A8DA" stroke-width="10"/>
<path d="M122.387 70.8344H113.397V79.8243H122.387V70.8344Z" fill="#78A8DA" stroke="#78A8DA" stroke-width="10"/>
<path d="M122.387 79.9844H113.397V88.9744H122.387V79.9844Z" fill="#78A8DA" stroke="#78A8DA" stroke-width="10"/>
<path d="M113.397 88.9844H104.407V97.9744H113.397V88.9844Z" fill="#78A8DA" stroke="#78A8DA" stroke-width="10"/>
<path d="M113.397 97.9744H104.407V106.964H113.397V97.9744Z" fill="#78A8DA" stroke="#78A8DA" stroke-width="10"/>
<path d="M104.397 106.974H95.4072V133.774H104.397V106.974Z" fill="#78A8DA" stroke="#78A8DA" stroke-width="10"/>
<path d="M95.407 133.774H86.417V169.854H95.407V133.774Z" fill="#78A8DA" stroke="#78A8DA" stroke-width="10"/>
<path d="M86.3767 169.844H77.3867V214.924H86.3767V169.844Z" fill="#78A8DA" stroke="#78A8DA" stroke-width="10"/>
<path d="M95.407 214.924H86.417V250.514H95.407V214.924Z" fill="#78A8DA" stroke="#78A8DA" stroke-width="10"/>
<path d="M104.397 250.514H95.4072V268.824H104.397V250.514Z" fill="#78A8DA" stroke="#78A8DA" stroke-width="10"/>
<path d="M113.397 268.824H104.407V286.854H113.397V268.824Z" fill="#78A8DA" stroke="#78A8DA" stroke-width="10"/>
<path d="M122.387 286.854H113.397V295.844H122.387V286.854Z" fill="#78A8DA" stroke="#78A8DA" stroke-width="10"/>
<path d="M131.377 295.844H122.387V304.834H131.377V295.844Z" fill="#78A8DA" stroke="#78A8DA" stroke-width="10"/>
<path d="M140.377 304.824H131.387V313.814H140.377V304.824Z" fill="#78A8DA" stroke="#78A8DA" stroke-width="10"/>
<path d="M149.367 313.824H140.377V322.814H149.367V313.824Z" fill="#78A8DA" stroke="#78A8DA" stroke-width="10"/>
<path d="M167.237 322.814H149.377V331.804H167.237V322.814Z" fill="#78A8DA" stroke="#78A8DA" stroke-width="10"/>
<path d="M185.297 331.814H167.237V340.804H185.297V331.814Z" fill="#78A8DA" stroke="#78A8DA" stroke-width="10"/>
<path d="M212.187 340.804H185.297V349.794H212.187V340.804Z" fill="#78A8DA" stroke="#78A8DA" stroke-width="10"/>
<path d="M257.308 349.794H212.188V358.784H257.308V349.794Z" fill="#78A8DA" stroke="#78A8DA" stroke-width="10"/>
<path d="M77.4373 187.894H68.4473V196.884H77.4373V187.894Z" fill="#78A8DA" stroke="#78A8DA" stroke-width="10"/>
<path d="M68.197 178.894H59.207V187.884H68.197V178.894Z" fill="#78A8DA" stroke="#78A8DA" stroke-width="10"/>
<path d="M59.2076 169.904H41.3076V178.894H59.2076V169.904Z" fill="#78A8DA" stroke="#78A8DA" stroke-width="10"/>
<path d="M41.2971 160.904H23.2871V169.894H41.2971V160.904Z" fill="#78A8DA" stroke="#78A8DA" stroke-width="10"/>
<path d="M23.2869 169.904H14.2969V178.894H23.2869V169.904Z" fill="#78A8DA" stroke="#78A8DA" stroke-width="10"/>
<path d="M14.2976 178.894H5.30762V196.754H14.2976V178.894Z" fill="#78A8DA" stroke="#78A8DA" stroke-width="10"/>
<path d="M23.2869 196.754H14.2969V205.744H23.2869V196.754Z" fill="#78A8DA" stroke="#78A8DA" stroke-width="10"/>
<path d="M59.3971 205.904H23.2871V214.894H59.3971V205.904Z" fill="#78A8DA" stroke="#78A8DA" stroke-width="10"/>
<path d="M68.1967 214.904H50.5967V223.894H68.1967V214.904Z" fill="#78A8DA" stroke="#78A8DA" stroke-width="10"/>
<path d="M50.2976 223.894H41.3076V232.884H50.2976V223.894Z" fill="#78A8DA" stroke="#78A8DA" stroke-width="10"/>
<path d="M41.2869 232.894H32.2969V241.884H41.2869V232.894Z" fill="#78A8DA" stroke="#78A8DA" stroke-width="10"/>
<path d="M32.2976 241.884H23.3076V259.674H32.2976V241.884Z" fill="#78A8DA" stroke="#78A8DA" stroke-width="10"/>
<path d="M41.2869 259.674H32.2969V268.664H41.2869V259.674Z" fill="#78A8DA" stroke="#78A8DA" stroke-width="10"/>
<path d="M59.3571 268.664H41.2871V277.654H59.3571V268.664Z" fill="#78A8DA" stroke="#78A8DA" stroke-width="10"/>
<path d="M68.3875 259.674H59.3975V268.664H68.3875V259.674Z" fill="#78A8DA" stroke="#78A8DA" stroke-width="10"/>
<path d="M77.3875 241.884H68.3975V259.774H77.3875V241.884Z" fill="#78A8DA" stroke="#78A8DA" stroke-width="10"/>
<path d="M87.3232 223.724H77.3867V241.884H87.3232V223.724Z" fill="#78A8DA" stroke="#78A8DA" stroke-width="10"/>
<path d="M257.387 89.0043H284.447V79.9043H257.387V89.0043Z" fill="#78A8DA" stroke="#78A8DA" stroke-width="10"/>
<path d="M266.437 79.9143H275.447V70.9043H266.437V79.9143Z" fill="#78A8DA" stroke="#78A8DA" stroke-width="10"/>
<path d="M275.457 70.8943H284.447V61.9043H275.457V70.8943Z" fill="#78A8DA" stroke="#78A8DA" stroke-width="10"/>
<path d="M284.457 61.9044H293.447V43.9144H284.457V61.9044Z" fill="#78A8DA" stroke="#78A8DA" stroke-width="10"/>
<path d="M293.448 43.9143H302.438V34.9243H293.448V43.9143Z" fill="#78A8DA" stroke="#78A8DA" stroke-width="10"/>
<path d="M302.447 34.9243H311.438V25.9343H302.447V34.9243Z" fill="#78A8DA" stroke="#78A8DA" stroke-width="10"/>
<path d="M311.437 25.9243H320.427V16.9343H311.437V25.9243Z" fill="#78A8DA" stroke="#78A8DA" stroke-width="10"/>
<path d="M325.427 11.9343V5.3894H326.193V11.9343H325.427Z" fill="#78A8DA" stroke="#78A8DA" stroke-width="10"/>
<mask id="path-66-inside-5_319_99" fill="white">
<path d="M329.427 16.9343H338.417V0.389465H329.427V16.9343Z"/>
</mask>
<path d="M329.427 16.9343H338.417V0.389465H329.427V16.9343Z" fill="#78A8DA"/>
<path d="M338.417 16.9343V26.9343H348.417V16.9343H338.417ZM329.427 16.9343L319.427 16.9343V26.9343H329.427V16.9343ZM329.427 0.389465V-9.61053L319.427 -9.61053V0.389465L329.427 0.389465ZM338.417 0.389465H348.417V-9.61053H338.417V0.389465ZM338.417 16.9343V6.93433L329.427 6.93433V16.9343V26.9343H338.417V16.9343ZM329.427 16.9343H339.427V0.389465H329.427L319.427 0.389465V16.9343L329.427 16.9343ZM329.427 0.389465V10.3895H338.417V0.389465V-9.61053H329.427V0.389465ZM338.417 0.389465H328.417V16.9343H338.417H348.417V0.389465H338.417Z" fill="#78A8DA" mask="url(#path-66-inside-5_319_99)"/>
<mask id="path-68-inside-6_319_99" fill="white">
<path d="M338.417 16.9343H347.407V0.389465H338.417V16.9343Z"/>
</mask>
<path d="M338.417 16.9343H347.407V0.389465H338.417V16.9343Z" fill="#78A8DA"/>
<path d="M347.407 16.9343V26.9343H357.407V16.9343H347.407ZM338.417 16.9343L328.417 16.9343V26.9343H338.417V16.9343ZM338.417 0.389465V-9.61053L328.417 -9.61053V0.389465L338.417 0.389465ZM347.407 0.389465H357.407V-9.61053H347.407V0.389465ZM347.407 16.9343V6.93433L338.417 6.93433V16.9343V26.9343H347.407V16.9343ZM338.417 16.9343H348.417V0.389465H338.417L328.417 0.389465V16.9343L338.417 16.9343ZM338.417 0.389465V10.3895H347.407V0.389465V-9.61053H338.417V0.389465ZM347.407 0.389465H337.407V16.9343H347.407H357.407V0.389465H347.407Z" fill="#78A8DA" mask="url(#path-68-inside-6_319_99)"/>
<path d="M351.16 11.9343V5.3894H351.427V11.9343H351.16Z" fill="#78A8DA" stroke="#78A8DA" stroke-width="10"/>
<path d="M356.417 25.9243H365.407V16.9343H356.417V25.9243Z" fill="#78A8DA" stroke="#78A8DA" stroke-width="10"/>
<path d="M365.417 34.9243H374.407V25.9343H365.417V34.9243Z" fill="#78A8DA" stroke="#78A8DA" stroke-width="10"/>
<path d="M365.417 43.9143H374.407V34.9243H365.417V43.9143Z" fill="#78A8DA" stroke="#78A8DA" stroke-width="10"/>
<path d="M374.417 52.9044H383.407V43.9144H374.417V52.9044Z" fill="#78A8DA" stroke="#78A8DA" stroke-width="10"/>
<path d="M383.407 61.9044H392.397V52.9143H383.407V61.9044Z" fill="#78A8DA" stroke="#78A8DA" stroke-width="10"/>
<path d="M383.407 70.8943H392.397V61.9043H383.407V70.8943Z" fill="#78A8DA" stroke="#78A8DA" stroke-width="10"/>
<path d="M392.407 79.8943H401.397V70.9044H392.407V79.8943Z" fill="#78A8DA" stroke="#78A8DA" stroke-width="10"/>
<path d="M392.407 89.0343H401.397V80.0443H392.407V89.0343Z" fill="#78A8DA" stroke="#78A8DA" stroke-width="10"/>
<path d="M401.387 98.0344H410.377V89.0443H401.387V98.0344Z" fill="#78A8DA" stroke="#78A8DA" stroke-width="10"/>
<path d="M401.387 107.024H410.377V98.0343H401.387V107.024Z" fill="#78A8DA" stroke="#78A8DA" stroke-width="10"/>
<path d="M410.387 133.834H419.377V107.034H410.387V133.834Z" fill="#78A8DA" stroke="#78A8DA" stroke-width="10"/>
<path d="M419.387 169.904H428.377V133.824H419.387V169.904Z" fill="#78A8DA" stroke="#78A8DA" stroke-width="10"/>
<path d="M428.417 214.984H437.407V169.904H428.417V214.984Z" fill="#78A8DA" stroke="#78A8DA" stroke-width="10"/>
<path d="M419.387 250.574H428.377V214.984H419.387V250.574Z" fill="#78A8DA" stroke="#78A8DA" stroke-width="10"/>
<path d="M410.387 268.884H419.377V250.574H410.387V268.884Z" fill="#78A8DA" stroke="#78A8DA" stroke-width="10"/>
<path d="M401.387 286.914H410.377V268.884H401.387V286.914Z" fill="#78A8DA" stroke="#78A8DA" stroke-width="10"/>
<path d="M392.407 295.854H401.397V286.864H392.407V295.854Z" fill="#78A8DA" stroke="#78A8DA" stroke-width="10"/>
<path d="M383.407 304.844H392.397V295.854H383.407V304.844Z" fill="#78A8DA" stroke="#78A8DA" stroke-width="10"/>
<path d="M374.417 313.874H383.407V304.884H374.417V313.874Z" fill="#78A8DA" stroke="#78A8DA" stroke-width="10"/>
<path d="M365.417 322.874H374.407V313.884H365.417V322.874Z" fill="#78A8DA" stroke="#78A8DA" stroke-width="10"/>
<path d="M347.557 331.864H365.417V322.874H347.557V331.864Z" fill="#78A8DA" stroke="#78A8DA" stroke-width="10"/>
<path d="M329.498 340.864H347.558V331.874H329.498V340.864Z" fill="#78A8DA" stroke="#78A8DA" stroke-width="10"/>
<path d="M302.597 349.854H329.487V340.864H302.597V349.854Z" fill="#78A8DA" stroke="#78A8DA" stroke-width="10"/>
<path d="M257.477 358.844H302.597V349.854H257.477V358.844Z" fill="#78A8DA" stroke="#78A8DA" stroke-width="10"/>
<path d="M437.347 196.944H446.337V187.954H437.347V196.944Z" fill="#78A8DA" stroke="#78A8DA" stroke-width="10"/>
<path d="M446.597 187.944H455.587V178.954H446.597V187.944Z" fill="#78A8DA" stroke="#78A8DA" stroke-width="10"/>
<path d="M455.587 178.954H473.487V169.964H455.587V178.954Z" fill="#78A8DA" stroke="#78A8DA" stroke-width="10"/>
<path d="M473.487 169.954H491.497V160.964H473.487V169.954Z" fill="#78A8DA" stroke="#78A8DA" stroke-width="10"/>
<path d="M491.507 178.954H500.497V169.964H491.507V178.954Z" fill="#78A8DA" stroke="#78A8DA" stroke-width="10"/>
<path d="M500.497 196.804H509.487V178.944H500.497V196.804Z" fill="#78A8DA" stroke="#78A8DA" stroke-width="10"/>
<path d="M491.507 205.804H500.497V196.814H491.507V205.804Z" fill="#78A8DA" stroke="#78A8DA" stroke-width="10"/>
<path d="M455.387 214.964H491.497V205.974H455.387V214.964Z" fill="#78A8DA" stroke="#78A8DA" stroke-width="10"/>
<path d="M446.588 223.954H464.188V214.964H446.588V223.954Z" fill="#78A8DA" stroke="#78A8DA" stroke-width="10"/>
<path d="M464.497 232.944H473.487V223.954H464.497V232.944Z" fill="#78A8DA" stroke="#78A8DA" stroke-width="10"/>
<path d="M473.497 241.944H482.487V232.954H473.497V241.944Z" fill="#78A8DA" stroke="#78A8DA" stroke-width="10"/>
<path d="M482.497 259.724H491.487V241.934H482.497V259.724Z" fill="#78A8DA" stroke="#78A8DA" stroke-width="10"/>
<path d="M473.497 268.724H482.487V259.734H473.497V268.724Z" fill="#78A8DA" stroke="#78A8DA" stroke-width="10"/>
<path d="M455.427 277.714H473.497V268.724H455.427V277.714Z" fill="#78A8DA" stroke="#78A8DA" stroke-width="10"/>
<path d="M446.397 268.724H455.387V259.734H446.397V268.724Z" fill="#78A8DA" stroke="#78A8DA" stroke-width="10"/>
<path d="M437.407 259.824H446.397V241.934H437.407V259.824Z" fill="#78A8DA" stroke="#78A8DA" stroke-width="10"/>
<path d="M427.765 241.944H437.397V223.784H427.765V241.944Z" fill="#78A8DA" stroke="#78A8DA" stroke-width="10"/>
</svg>
