<svg width="84" height="63" viewBox="0 0 84 63" fill="none" xmlns="http://www.w3.org/2000/svg">
<g clip-path="url(#clip0_51_312)">
<path d="M73.5078 0.5H11.2578C8.39387 0.5 5.94874 1.5091 3.92236 3.52734C1.89599 5.54558 0.882812 7.98089 0.882812 10.8333V52.1667C0.882812 55.0191 1.89599 57.4544 3.92236 59.4727C5.94874 61.4909 8.39387 62.5 11.2578 62.5H73.5078C76.3718 62.5 78.8169 61.4909 80.8433 59.4727C82.8696 57.4544 83.8828 55.0191 83.8828 52.1667V10.8333C83.8828 7.98089 82.8696 5.54558 80.8433 3.52734C78.8169 1.5091 76.3718 0.5 73.5078 0.5ZM76.1016 5.66667L42.3828 31.5L8.66406 5.66667H76.1016ZM6.07031 52.1667V10.8333L29.4141 28.9167L6.31348 53.6198C6.25944 53.4045 6.2054 53.1758 6.15137 52.9336C6.09733 52.6914 6.07031 52.4358 6.07031 52.1667ZM10.123 57.1719L33.5479 32.388L42.3828 39.0078L50.8936 32.3073L74.6426 57.1719C74.5345 57.2257 71.1302 57.2526 64.4297 57.2526C57.7291 57.2526 50.3802 57.2526 42.3828 57.2526C34.3854 57.2526 27.0365 57.2526 20.3359 57.2526C13.6354 57.2526 10.2311 57.2257 10.123 57.1719ZM78.6953 52.1667C78.6953 52.4358 78.6683 52.6914 78.6143 52.9336C78.5602 53.1758 78.5062 53.4045 78.4521 53.6198L55.3516 28.9167L78.6953 10.8333V52.1667Z" fill="#2077E2"/>
</g>
<defs>
<clipPath id="clip0_51_312">
<rect width="83" height="62" fill="white" transform="translate(0.882812 0.5)"/>
</clipPath>
</defs>
</svg>
