<svg width="75" height="76" viewBox="0 0 75 76" fill="none" xmlns="http://www.w3.org/2000/svg">
<g clip-path="url(#clip0_36_240)">
<path d="M8.33333 0.5C3.75 0.5 0 4.25 0 8.83333V67.1667C0 71.75 3.75 75.5 8.33333 75.5H66.6667C71.25 75.5 75 71.75 75 67.1667V8.83333C75 4.25 71.25 0.5 66.6667 0.5H8.33333ZM16.2109 21.3333H27.4577C37.1493 21.3333 38.3057 30.252 38.3057 32.1895C38.3015 39.9395 32.8818 42.6468 27.8402 42.6468H23.1852V54.276H16.2109V21.3333ZM23.1852 26.7614V37.2269H27.8402C30.9402 37.2269 31.7139 34.902 31.7139 32.1895C31.718 29.4728 30.5568 26.7614 27.8402 26.7614H23.1852ZM50.708 29.4714C56.5205 29.4714 59.6191 32.9644 59.6191 37.2269H53.0355C53.0355 35.2894 52.258 34.1263 50.708 34.1263C49.5455 34.1263 48.3805 34.9038 48.3805 36.4538C48.3805 40.3288 59.6273 39.1632 59.6273 47.6924C59.6231 53.5049 53.808 54.6667 50.708 54.6667C44.508 54.6667 41.4062 50.4036 41.4062 46.5286H47.6074C47.6074 49.6286 49.933 50.0199 50.708 50.0199C52.258 50.0199 53.418 49.2424 53.418 47.6924C53.418 44.2049 42.1712 44.5904 42.1712 36.8363C42.1712 31.0238 47.6038 29.4714 50.708 29.4714Z" fill="#2077E2"/>
</g>
<defs>
<clipPath id="clip0_36_240">
<rect width="75" height="75" fill="white" transform="translate(0 0.5)"/>
</clipPath>
</defs>
</svg>
