<svg width="91" height="96" viewBox="0 0 91 96" fill="none" xmlns="http://www.w3.org/2000/svg">
<path d="M32.3421 29.2113L37.8258 6.70594L53.88 23.404C56.0098 25.6193 59.0032 26.7903 62.0708 26.6084L84.9956 25.2486L74.4163 46.2173C73.0676 48.8906 72.9243 52.0126 74.0225 54.7982L82.681 76.7596L60.2641 72.7816C57.1889 72.2359 54.0303 73.0876 51.6462 75.1053L34.2677 89.8134L30.7122 66.476C30.2612 63.5159 28.5679 60.8892 26.058 59.2563L6.37142 46.4482L26.8724 36.099C29.6157 34.7141 31.6146 32.197 32.3421 29.2113ZM85.3871 24.4728L85.3866 24.4737L85.3871 24.4728Z" stroke="#2077E2" stroke-width="11"/>
</svg>
