<svg width="75" height="76" viewBox="0 0 75 76" fill="none" xmlns="http://www.w3.org/2000/svg">
<path fill-rule="evenodd" clip-rule="evenodd" d="M8 0C3.58172 0 0 3.58172 0 8V68C0 72.4183 3.58172 76 8 76H67C71.4183 76 75 72.4183 75 68V8C75 3.58172 71.4183 0 67 0H8ZM59 52.0016V24.9589C59 23.8971 58.4002 22.9221 57.4362 22.467C55.5297 21.5569 52.3165 19.9968 50.3029 19C50.3672 19.26 50.4314 19.6501 50.4314 20.1484V56.8554C50.4314 57.2237 50.3886 57.5921 50.3243 57.9388C51.2843 57.4812 52.6309 56.828 53.9775 56.1748C55.245 55.5601 56.5125 54.9453 57.4577 54.4935C58.4002 54.0384 59 53.0633 59 52.0016ZM25.6254 46.3677C23.9545 44.8075 22.1551 43.1607 20.2486 41.4272C19.6688 41.9615 19.1201 42.4645 18.6209 42.922C18.2902 43.2251 17.9812 43.5083 17.6994 43.7674C16.7355 44.6558 16.7783 46.1727 17.7637 47.0177L19.7773 48.7296C20.5485 49.3796 21.6624 49.4013 22.455 48.7946L25.6254 46.3677ZM46.1471 30.5711V20.1484C46.1471 20.0401 46.1257 19.9534 46.1043 19.8668C46.0614 19.6717 45.9757 19.5201 45.8686 19.39C45.4831 18.9567 44.7761 18.8267 44.2835 19.3034C41.8628 21.5786 37.2144 25.869 32.3089 30.3544L39.3779 35.7716L46.1471 30.5711ZM46.1471 46.4327V56.8554C46.1471 57.8521 44.9946 58.3657 44.2835 57.7005C39.1166 52.8661 23.5839 38.6254 17.6994 33.2342C16.7376 32.3523 16.7762 30.8225 17.7723 29.9774L19.7794 28.2786C20.5463 27.6285 21.6538 27.6003 22.4507 28.2136L46.1471 46.4327Z" fill="#2077E2"/>
</svg>
